<mxfile host="Electron" agent="Mozilla/5.0 (Windows NT 10.0; Win64; x64) AppleWebKit/537.36 (KHTML, like Gecko) draw.io/28.1.2 Chrome/138.0.7204.243 Electron/37.4.0 Safari/537.36" version="28.1.2">
  <diagram name="Seite-1" id="o9HsZmcD0HkmiZP0IZTk">
    <mxGraphModel dx="1501" dy="894" grid="1" gridSize="10" guides="1" tooltips="1" connect="1" arrows="1" fold="1" page="1" pageScale="1" pageWidth="827" pageHeight="1169" math="0" shadow="0">
      <root>
        <mxCell id="0" />
        <mxCell id="1" parent="0" />
        <mxCell id="oKAYilquSCnaQoImeTWi-3" value="" style="edgeStyle=orthogonalEdgeStyle;rounded=0;orthogonalLoop=1;jettySize=auto;html=1;" edge="1" parent="1" source="oKAYilquSCnaQoImeTWi-1" target="oKAYilquSCnaQoImeTWi-2">
          <mxGeometry relative="1" as="geometry" />
        </mxCell>
        <mxCell id="oKAYilquSCnaQoImeTWi-1" value="Start" style="ellipse;whiteSpace=wrap;html=1;aspect=fixed;" vertex="1" parent="1">
          <mxGeometry x="320" y="40" width="80" height="80" as="geometry" />
        </mxCell>
        <mxCell id="oKAYilquSCnaQoImeTWi-9" value="" style="edgeStyle=orthogonalEdgeStyle;rounded=0;orthogonalLoop=1;jettySize=auto;html=1;" edge="1" parent="1" source="oKAYilquSCnaQoImeTWi-2" target="oKAYilquSCnaQoImeTWi-8">
          <mxGeometry relative="1" as="geometry" />
        </mxCell>
        <mxCell id="oKAYilquSCnaQoImeTWi-2" value="&lt;div&gt;Print&lt;/div&gt;&lt;div&gt;&quot;Was ist dein Name?&quot;&lt;/div&gt;" style="whiteSpace=wrap;html=1;" vertex="1" parent="1">
          <mxGeometry x="280" y="150" width="160" height="60" as="geometry" />
        </mxCell>
        <mxCell id="oKAYilquSCnaQoImeTWi-12" value="" style="edgeStyle=orthogonalEdgeStyle;rounded=0;orthogonalLoop=1;jettySize=auto;html=1;" edge="1" parent="1" source="oKAYilquSCnaQoImeTWi-8" target="oKAYilquSCnaQoImeTWi-11">
          <mxGeometry relative="1" as="geometry" />
        </mxCell>
        <mxCell id="oKAYilquSCnaQoImeTWi-43" style="edgeStyle=orthogonalEdgeStyle;rounded=0;orthogonalLoop=1;jettySize=auto;html=1;exitX=0.5;exitY=1;exitDx=0;exitDy=0;entryX=0.5;entryY=0;entryDx=0;entryDy=0;" edge="1" parent="1" source="oKAYilquSCnaQoImeTWi-8" target="oKAYilquSCnaQoImeTWi-15">
          <mxGeometry relative="1" as="geometry" />
        </mxCell>
        <mxCell id="oKAYilquSCnaQoImeTWi-8" value="Input" style="shape=parallelogram;perimeter=parallelogramPerimeter;whiteSpace=wrap;html=1;fixedSize=1;" vertex="1" parent="1">
          <mxGeometry x="300" y="240" width="120" height="60" as="geometry" />
        </mxCell>
        <mxCell id="oKAYilquSCnaQoImeTWi-21" style="edgeStyle=orthogonalEdgeStyle;rounded=0;orthogonalLoop=1;jettySize=auto;html=1;exitX=0.5;exitY=1;exitDx=0;exitDy=0;entryX=0;entryY=0.5;entryDx=0;entryDy=0;" edge="1" parent="1" source="oKAYilquSCnaQoImeTWi-11" target="oKAYilquSCnaQoImeTWi-17">
          <mxGeometry relative="1" as="geometry">
            <Array as="points">
              <mxPoint x="230" y="380" />
              <mxPoint x="230" y="560" />
            </Array>
          </mxGeometry>
        </mxCell>
        <mxCell id="oKAYilquSCnaQoImeTWi-25" style="edgeStyle=orthogonalEdgeStyle;rounded=0;orthogonalLoop=1;jettySize=auto;html=1;exitX=0.25;exitY=1;exitDx=0;exitDy=0;entryX=0;entryY=0.5;entryDx=0;entryDy=0;" edge="1" parent="1" source="oKAYilquSCnaQoImeTWi-11" target="oKAYilquSCnaQoImeTWi-22">
          <mxGeometry relative="1" as="geometry">
            <Array as="points">
              <mxPoint x="170" y="380" />
              <mxPoint x="170" y="670" />
            </Array>
          </mxGeometry>
        </mxCell>
        <mxCell id="oKAYilquSCnaQoImeTWi-11" value="Auslesen der Tabelle" style="whiteSpace=wrap;html=1;" vertex="1" parent="1">
          <mxGeometry x="130" y="320" width="140" height="60" as="geometry" />
        </mxCell>
        <mxCell id="oKAYilquSCnaQoImeTWi-18" value="" style="edgeStyle=orthogonalEdgeStyle;rounded=0;orthogonalLoop=1;jettySize=auto;html=1;" edge="1" parent="1" source="oKAYilquSCnaQoImeTWi-15" target="oKAYilquSCnaQoImeTWi-17">
          <mxGeometry relative="1" as="geometry" />
        </mxCell>
        <mxCell id="oKAYilquSCnaQoImeTWi-32" value="" style="edgeStyle=orthogonalEdgeStyle;rounded=0;orthogonalLoop=1;jettySize=auto;html=1;" edge="1" parent="1" source="oKAYilquSCnaQoImeTWi-15" target="oKAYilquSCnaQoImeTWi-19">
          <mxGeometry relative="1" as="geometry" />
        </mxCell>
        <mxCell id="oKAYilquSCnaQoImeTWi-15" value="Input != exit" style="rhombus;whiteSpace=wrap;html=1;" vertex="1" parent="1">
          <mxGeometry x="300" y="410" width="120" height="80" as="geometry" />
        </mxCell>
        <mxCell id="oKAYilquSCnaQoImeTWi-23" value="" style="edgeStyle=orthogonalEdgeStyle;rounded=0;orthogonalLoop=1;jettySize=auto;html=1;" edge="1" parent="1" source="oKAYilquSCnaQoImeTWi-17" target="oKAYilquSCnaQoImeTWi-22">
          <mxGeometry relative="1" as="geometry" />
        </mxCell>
        <mxCell id="oKAYilquSCnaQoImeTWi-46" value="" style="edgeStyle=orthogonalEdgeStyle;rounded=0;orthogonalLoop=1;jettySize=auto;html=1;" edge="1" parent="1" source="oKAYilquSCnaQoImeTWi-17" target="oKAYilquSCnaQoImeTWi-45">
          <mxGeometry relative="1" as="geometry" />
        </mxCell>
        <mxCell id="oKAYilquSCnaQoImeTWi-17" value="Input = Tabelle" style="rhombus;whiteSpace=wrap;html=1;" vertex="1" parent="1">
          <mxGeometry x="300" y="520" width="120" height="80" as="geometry" />
        </mxCell>
        <mxCell id="oKAYilquSCnaQoImeTWi-19" value="End" style="ellipse;whiteSpace=wrap;html=1;aspect=fixed;" vertex="1" parent="1">
          <mxGeometry x="550" y="410" width="80" height="80" as="geometry" />
        </mxCell>
        <mxCell id="oKAYilquSCnaQoImeTWi-30" value="" style="edgeStyle=orthogonalEdgeStyle;rounded=0;orthogonalLoop=1;jettySize=auto;html=1;" edge="1" parent="1" source="oKAYilquSCnaQoImeTWi-22" target="oKAYilquSCnaQoImeTWi-27">
          <mxGeometry relative="1" as="geometry" />
        </mxCell>
        <mxCell id="oKAYilquSCnaQoImeTWi-22" value="&lt;div&gt;Print&lt;/div&gt;&quot;Der Name ist &quot;Input&quot; und du bist &quot;Tabelle" style="whiteSpace=wrap;html=1;" vertex="1" parent="1">
          <mxGeometry x="270" y="640" width="180" height="60" as="geometry" />
        </mxCell>
        <mxCell id="oKAYilquSCnaQoImeTWi-26" value="" style="edgeStyle=orthogonalEdgeStyle;rounded=0;orthogonalLoop=1;jettySize=auto;html=1;" edge="1" parent="1" source="oKAYilquSCnaQoImeTWi-27" target="oKAYilquSCnaQoImeTWi-28">
          <mxGeometry relative="1" as="geometry" />
        </mxCell>
        <mxCell id="oKAYilquSCnaQoImeTWi-27" value="&lt;div&gt;Print&lt;/div&gt;&lt;div&gt;&quot;Was ist dein Name?&quot;&lt;/div&gt;" style="whiteSpace=wrap;html=1;" vertex="1" parent="1">
          <mxGeometry x="280" y="730" width="160" height="60" as="geometry" />
        </mxCell>
        <mxCell id="oKAYilquSCnaQoImeTWi-42" style="edgeStyle=orthogonalEdgeStyle;rounded=0;orthogonalLoop=1;jettySize=auto;html=1;entryX=0.5;entryY=0;entryDx=0;entryDy=0;" edge="1" parent="1" source="oKAYilquSCnaQoImeTWi-28" target="oKAYilquSCnaQoImeTWi-15">
          <mxGeometry relative="1" as="geometry">
            <Array as="points">
              <mxPoint x="750" y="850" />
              <mxPoint x="750" y="380" />
              <mxPoint x="360" y="380" />
            </Array>
          </mxGeometry>
        </mxCell>
        <mxCell id="oKAYilquSCnaQoImeTWi-28" value="Input" style="shape=parallelogram;perimeter=parallelogramPerimeter;whiteSpace=wrap;html=1;fixedSize=1;" vertex="1" parent="1">
          <mxGeometry x="300" y="820" width="120" height="60" as="geometry" />
        </mxCell>
        <mxCell id="oKAYilquSCnaQoImeTWi-49" value="" style="edgeStyle=orthogonalEdgeStyle;rounded=0;orthogonalLoop=1;jettySize=auto;html=1;" edge="1" parent="1" source="oKAYilquSCnaQoImeTWi-45" target="oKAYilquSCnaQoImeTWi-48">
          <mxGeometry relative="1" as="geometry" />
        </mxCell>
        <mxCell id="oKAYilquSCnaQoImeTWi-45" value="Print&lt;div&gt;&quot;Dich gibts noch nicht.&lt;/div&gt;&lt;div&gt;Wie alt bist du?&quot;&lt;/div&gt;" style="whiteSpace=wrap;html=1;" vertex="1" parent="1">
          <mxGeometry x="500" y="530" width="180" height="60" as="geometry" />
        </mxCell>
        <mxCell id="oKAYilquSCnaQoImeTWi-51" value="" style="edgeStyle=orthogonalEdgeStyle;rounded=0;orthogonalLoop=1;jettySize=auto;html=1;" edge="1" parent="1" source="oKAYilquSCnaQoImeTWi-48" target="oKAYilquSCnaQoImeTWi-50">
          <mxGeometry relative="1" as="geometry" />
        </mxCell>
        <mxCell id="oKAYilquSCnaQoImeTWi-48" value="Input" style="shape=parallelogram;perimeter=parallelogramPerimeter;whiteSpace=wrap;html=1;fixedSize=1;" vertex="1" parent="1">
          <mxGeometry x="530" y="630" width="120" height="60" as="geometry" />
        </mxCell>
        <mxCell id="oKAYilquSCnaQoImeTWi-50" value="Eintrag in Tabelle" style="whiteSpace=wrap;html=1;" vertex="1" parent="1">
          <mxGeometry x="530" y="740" width="120" height="60" as="geometry" />
        </mxCell>
      </root>
    </mxGraphModel>
  </diagram>
</mxfile>
